<svg width="25" height="25" viewBox="0 0 25 25" fill="none" xmlns="http://www.w3.org/2000/svg">
<circle cx="12.5" cy="12.5" r="12.5" fill="#CCAC58"/>
<path d="M17.7509 7.18067C17.0633 6.48645 16.2444 5.93609 15.3419 5.5617C14.4394 5.18731 13.4714 4.99638 12.4943 5.00005C8.4003 5.00005 5.06375 8.33567 5.06 12.4307C5.06 13.7422 5.40312 15.0181 6.05093 16.1478L5 20L8.94124 18.9669C10.0311 19.5615 11.2529 19.8726 12.4943 19.8716H12.4981C16.5931 19.8716 19.9287 16.5359 19.9324 12.4372C19.9333 11.4604 19.7409 10.4931 19.3663 9.59092C18.9917 8.68877 18.4434 7.86963 17.7509 7.18067ZM12.4943 18.6134C11.3873 18.6126 10.3008 18.3147 9.34811 17.7509L9.12311 17.6159L6.78499 18.2291L7.40937 15.9481L7.26312 15.7128C6.64419 14.7288 6.31685 13.5894 6.31906 12.4269C6.31906 9.02754 9.09124 6.25442 12.4981 6.25442C13.3097 6.25297 14.1136 6.41218 14.8634 6.72288C15.6132 7.03358 16.2941 7.48963 16.8668 8.06473C17.4414 8.63768 17.897 9.31867 18.2072 10.0685C18.5174 10.8183 18.6762 11.622 18.6743 12.4335C18.6706 15.845 15.8984 18.6134 12.4943 18.6134ZM15.8834 13.9878C15.6987 13.895 14.7865 13.446 14.615 13.3822C14.4443 13.3213 14.3197 13.2894 14.1978 13.475C14.0731 13.6597 13.7168 14.0806 13.61 14.2016C13.5031 14.3263 13.3925 14.3403 13.2068 14.2485C13.0222 14.1547 12.4231 13.9597 11.7144 13.325C11.1612 12.8328 10.7909 12.2235 10.6803 12.0388C10.5734 11.8532 10.67 11.7538 10.7628 11.661C10.8444 11.5785 10.9475 11.4435 11.0403 11.3366C11.134 11.2297 11.165 11.151 11.2259 11.0272C11.2869 10.9016 11.2578 10.7947 11.2119 10.7019C11.165 10.6091 10.7947 9.69316 10.6381 9.32379C10.4881 8.9591 10.3353 9.00973 10.2209 9.00504C10.114 8.99848 9.98936 8.99848 9.86467 8.99848C9.77052 9.00087 9.67788 9.02268 9.59255 9.06252C9.50721 9.10236 9.43102 9.15939 9.36873 9.23004C9.19811 9.41566 8.72092 9.86472 8.72092 10.7807C8.72092 11.6966 9.38655 12.5769 9.4803 12.7016C9.57217 12.8263 10.7872 14.7003 12.6518 15.5066C13.0925 15.6988 13.4393 15.8122 13.7103 15.8985C14.1556 16.041 14.5578 16.0194 14.8784 15.9735C15.2347 15.9191 15.9762 15.5235 16.1328 15.0894C16.2865 14.6544 16.2865 14.2831 16.2396 14.2053C16.1937 14.1266 16.069 14.0806 15.8834 13.9878Z" fill="#292212"/>
</svg>
