<svg width="8" height="25" viewBox="0 0 8 25" fill="none" xmlns="http://www.w3.org/2000/svg">
<path fill-rule="evenodd" clip-rule="evenodd" d="M7.44277 0.101093C7.67924 0.215322 7.85897 0.415074 7.94254 0.656549C8.02611 0.898024 8.0067 1.16152 7.88858 1.38925L2.11706 12.4963L7.89058 23.6014C7.95059 23.7143 7.98675 23.8376 7.99699 23.9641C8.00722 24.0906 7.99132 24.2178 7.9502 24.3383C7.90908 24.4589 7.84356 24.5704 7.75741 24.6665C7.67126 24.7626 7.56619 24.8413 7.44825 24.8981C7.33031 24.955 7.20184 24.9888 7.07025 24.9977C6.93865 25.0065 6.80654 24.9902 6.68151 24.9498C6.55649 24.9093 6.44104 24.8454 6.34181 24.7618C6.24257 24.6782 6.16153 24.5766 6.10334 24.4627L0.105921 12.9269C0.0362681 12.7933 0 12.6458 0 12.4963C0 12.3467 0.0362681 12.1993 0.105921 12.0656L6.10334 0.529839C6.22212 0.302415 6.42982 0.129568 6.68091 0.0491962C6.93199 -0.0311754 7.20597 -0.0125126 7.44277 0.101093Z" fill="#C7A753"/>
</svg>
