<svg width="8" height="25" viewBox="0 0 8 25" fill="none" xmlns="http://www.w3.org/2000/svg">
<path fill-rule="evenodd" clip-rule="evenodd" d="M0.557231 24.8989C0.320756 24.7847 0.141031 24.5849 0.0574609 24.3435C-0.0261093 24.102 -0.00670322 23.8385 0.111423 23.6107L5.88294 12.5037L0.109423 1.39864C0.049411 1.28566 0.0132458 1.16237 0.00301236 1.03589C-0.00722103 0.909402 0.00867989 0.782219 0.0497986 0.661671C0.0909173 0.541124 0.156441 0.429595 0.242591 0.333517C0.32874 0.237439 0.433812 0.158713 0.55175 0.101874C0.669687 0.0450358 0.798157 0.0112105 0.929752 0.00234881C1.06135 -0.00651286 1.19346 0.00976388 1.31849 0.0502414C1.44351 0.0907189 1.55896 0.154596 1.65819 0.23819C1.75743 0.321785 1.83847 0.423442 1.89666 0.537303L7.89408 12.0731C7.96373 12.2067 8 12.3542 8 12.5037C8 12.6533 7.96373 12.8007 7.89408 12.9344L1.89666 24.4702C1.77788 24.6976 1.57018 24.8704 1.31909 24.9508C1.06801 25.0312 0.79403 25.0125 0.557231 24.8989Z" fill="#C7A753"/>
</svg>
